<?xml version="1.0" encoding="UTF-8" standalone="no"?><!DOCTYPE svg PUBLIC "-//W3C//DTD SVG 1.1//EN" "http://www.w3.org/Graphics/SVG/1.1/DTD/svg11.dtd"><svg width="100%" height="100%" viewBox="0 0 8059 8000" version="1.1" xmlns="http://www.w3.org/2000/svg" xmlns:xlink="http://www.w3.org/1999/xlink" xml:space="preserve" xmlns:serif="http://www.serif.com/" style="fill-rule:evenodd;clip-rule:evenodd;stroke-linejoin:round;stroke-miterlimit:2;"><rect id="RCOS-Favicon" serif:id="RCOS Favicon" x="0" y="0.543" width="8056.2" height="7995.9" style="fill:none;"/><clipPath id="_clip1"><rect x="0" y="0.543" width="8056.2" height="7995.9"/></clipPath><g clip-path="url(#_clip1)"><rect id="EcoHubs-Logo" serif:id="EcoHubs Logo" x="-20.833" y="4.709" width="8000" height="8000" style="fill:none;"/><g id="EcoHubs-Logo1" serif:id="EcoHubs Logo"><g><path d="M1542.43,1566.53c130.017,-130.021 910.471,-268.308 1546.56,367.783c380.354,380.359 859.354,1790.57 735.57,1914.35c-111.533,111.534 -1533.99,-355.216 -1914.35,-735.575c-686.334,-686.333 -512.905,-1401.44 -367.788,-1546.56Z" style="fill:#064e3b;"/><path d="M6415.92,6459.04c-130.017,130.016 -910.471,268.304 -1546.56,-367.788c-380.354,-380.358 -859.354,-1790.57 -735.571,-1914.35c111.534,-111.533 1533.99,355.217 1914.35,735.575c686.333,686.334 512.904,1401.44 367.788,1546.56Z" style="fill:#064e3b;"/><path d="M6425.42,1576.04c130.016,130.016 268.304,910.466 -367.788,1546.56c-380.354,380.358 -1790.57,859.354 -1914.35,735.575c-111.537,-111.533 355.217,-1533.99 735.571,-1914.35c686.333,-686.333 1401.45,-512.904 1546.56,-367.783Z" style="fill:#064e3b;"/><path d="M1532.92,6449.5c-130.017,-130.021 -268.305,-910.471 367.787,-1546.56c380.354,-380.355 1790.57,-859.355 1914.35,-735.575c111.537,111.537 -355.217,1533.99 -735.571,1914.35c-686.333,686.333 -1401.45,512.904 -1546.56,367.787Z" style="fill:#064e3b;"/></g><path d="M3974.67,486.001c117.454,0 532.429,290.054 532.429,864.671c0,343.6 -420.613,1196.92 -532.429,1196.92c-100.754,-0 -532.429,-853.317 -532.429,-1196.92c-0,-620.004 401.337,-864.671 532.429,-864.671Z" style="fill:#1a8e7b;"/><path d="M4010.04,7523.42c-117.454,-0 -532.43,-290.054 -532.43,-864.671c0,-343.6 420.609,-1196.92 532.43,-1196.92c100.754,0 532.429,853.317 532.429,1196.92c-0,620.004 -401.338,864.671 -532.429,864.671Z" style="fill:#1a8e7b;"/><path d="M7513.25,4021.76c0,117.454 -290.05,532.429 -864.671,532.429c-343.596,-0 -1196.91,-420.609 -1196.91,-532.429c-0,-100.755 853.316,-532.425 1196.91,-532.425c620.004,-0 864.671,401.333 864.671,532.425Z" style="fill:#1a8e7b;"/><path d="M463.046,3995.21c-0,-117.455 290.05,-532.43 864.671,-532.43c343.596,0 1196.91,420.613 1196.91,532.43c0,100.754 -853.316,532.429 -1196.91,532.429c-620.004,-0 -864.671,-401.338 -864.671,-532.429Z" style="fill:#1a8e7b;"/><g><path d="M638.227,4782.09l-0,-1563.52l805.222,0c149.312,0 263.43,12.799 342.352,38.395c78.923,25.597 142.558,73.057 190.907,142.38c48.349,69.324 72.524,153.757 72.524,253.299c-0,86.743 -18.487,161.577 -55.459,224.502c-36.973,62.925 -87.811,113.94 -152.513,153.046c-41.238,24.885 -97.764,45.504 -169.576,61.858c57.592,19.197 99.542,38.394 125.849,57.592c17.775,12.798 43.55,40.172 77.323,82.122c33.773,41.949 56.347,74.301 67.724,97.053l233.567,453.271l-546.057,-0l-258.098,-477.801c-32.707,-61.858 -61.858,-102.03 -87.455,-120.517c-34.839,-24.174 -74.301,-36.261 -118.383,-36.261l-42.661,-0l-0,634.579l-485.266,-0Zm485.266,-930.005l203.705,-0c22.041,-0 64.702,-7.11 127.982,-21.331c31.996,-6.399 58.126,-22.752 78.39,-49.059c20.263,-26.308 30.395,-56.526 30.395,-90.655c0,-50.481 -15.997,-89.232 -47.993,-116.25c-31.996,-27.019 -92.076,-40.528 -180.242,-40.528l-212.237,0l-0,317.823Z" style="fill:#fff;fill-rule:nonzero;stroke:#064e3b;stroke-width:87.5px;"/><path d="M3332.25,4143.25l423.408,127.982c-28.44,118.739 -73.234,217.925 -134.381,297.559c-61.147,79.633 -137.048,139.714 -227.702,180.241c-90.654,40.528 -206.016,60.792 -346.085,60.792c-169.933,0 -308.758,-24.708 -416.476,-74.123c-107.719,-49.415 -200.684,-136.337 -278.895,-260.764c-78.211,-124.427 -117.317,-283.694 -117.317,-477.801c-0,-258.808 68.79,-457.714 206.371,-596.717c137.581,-139.003 332.221,-208.504 583.92,-208.504c196.95,-0 351.773,39.816 464.469,119.45c112.695,79.633 196.417,201.927 251.165,366.882l-426.608,94.92c-14.931,-47.637 -30.573,-82.477 -46.927,-104.518c-27.018,-36.973 -60.08,-65.414 -99.186,-85.322c-39.106,-19.908 -82.833,-29.862 -131.182,-29.862c-109.496,-0 -193.395,44.082 -251.698,132.248c-44.083,65.413 -66.124,168.154 -66.124,308.224c-0,173.487 26.307,292.404 78.922,356.751c52.615,64.346 126.56,96.52 221.836,96.52c92.432,-0 162.289,-25.952 209.571,-77.856c47.282,-51.904 81.589,-127.272 102.919,-226.102Z" style="fill:#fff;fill-rule:nonzero;stroke:#064e3b;stroke-width:87.5px;"/><path d="M3929.51,4001.4c-0,-255.254 71.101,-453.982 213.304,-596.185c142.202,-142.202 340.219,-213.303 594.051,-213.303c260.231,-0 460.736,69.857 601.517,209.571c140.78,139.714 211.17,335.42 211.17,587.118c0,182.731 -30.751,332.577 -92.253,449.538c-61.503,116.962 -150.38,207.971 -266.63,273.029c-116.251,65.058 -261.12,97.587 -434.607,97.587c-176.331,-0 -322.266,-28.085 -437.806,-84.255c-115.539,-56.17 -209.215,-145.047 -281.028,-266.63c-71.812,-121.583 -107.718,-273.74 -107.718,-456.47Zm483.133,2.133c0,157.844 29.329,271.251 87.988,340.219c58.658,68.968 138.47,103.453 239.433,103.453c103.808,-0 184.153,-33.774 241.034,-101.32c56.881,-67.546 85.321,-188.774 85.321,-363.683c0,-147.179 -29.684,-254.72 -89.054,-322.622c-59.37,-67.902 -139.892,-101.852 -241.567,-101.852c-97.408,-0 -175.62,34.484 -234.634,103.452c-59.014,68.968 -88.521,183.086 -88.521,342.353Z" style="fill:#fff;fill-rule:nonzero;stroke:#064e3b;stroke-width:87.5px;"/><path d="M5725.52,4264.83l459.67,-28.796c9.954,74.656 30.218,131.537 60.791,170.643c49.771,63.28 120.873,94.92 213.304,94.92c68.969,0 122.117,-16.175 159.445,-48.527c37.328,-32.351 55.992,-69.857 55.992,-112.517c0,-40.528 -17.775,-76.79 -53.326,-108.785c-35.55,-31.996 -118.028,-62.214 -247.432,-90.654c-211.882,-47.638 -362.972,-110.918 -453.271,-189.841c-91.009,-78.922 -136.514,-179.531 -136.514,-301.825c-0,-80.344 23.285,-156.245 69.857,-227.702c46.571,-71.456 116.606,-127.626 210.104,-168.51c93.498,-40.883 221.658,-61.324 384.48,-61.324c199.795,-0 352.129,37.15 457.004,111.451c104.874,74.301 167.265,192.506 187.174,354.617l-455.404,26.663c-12.087,-70.39 -37.506,-121.583 -76.256,-153.578c-38.75,-31.996 -92.254,-47.994 -160.511,-47.994c-56.17,0 -98.475,11.91 -126.916,35.729c-28.441,23.819 -42.661,52.792 -42.661,86.921c0,24.885 11.732,47.282 35.195,67.191c22.753,20.619 76.79,39.816 162.111,57.592c211.171,45.505 362.439,91.543 453.804,138.114c91.365,46.571 157.845,104.341 199.439,173.309c41.595,68.969 62.392,146.113 62.392,231.435c-0,100.253 -27.73,192.684 -83.189,277.295c-55.459,84.61 -132.959,148.779 -232.501,192.507c-99.542,43.727 -225.036,65.591 -376.481,65.591c-265.919,-0 -450.071,-51.193 -552.457,-153.579c-102.386,-102.386 -160.334,-232.501 -173.843,-390.346Z" style="fill:#fff;fill-rule:nonzero;stroke:#064e3b;stroke-width:87.5px;"/></g></g></g></svg>